<svg width="28" height="28" viewBox="0 0 28 28" fill="none" xmlns="http://www.w3.org/2000/svg">
<g id="fluent:send-28-filled">
<path id="Vector" d="M3.7898 2.77294L24.8598 12.8499C25.0728 12.9516 25.2526 13.1115 25.3785 13.3112C25.5044 13.5108 25.5712 13.7419 25.5712 13.9779C25.5712 14.2139 25.5044 14.4451 25.3785 14.6447C25.2526 14.8444 25.0728 15.0043 24.8598 15.1059L3.7898 25.1829C3.57381 25.2864 3.33263 25.3256 3.09498 25.296C2.85733 25.2663 2.63321 25.169 2.44927 25.0156C2.26534 24.8622 2.12934 24.6592 2.05746 24.4308C1.98557 24.2023 1.98084 23.958 2.0438 23.7269L4.1518 15.9989C4.17761 15.9042 4.23072 15.8192 4.30452 15.7545C4.37832 15.6898 4.46954 15.6482 4.5668 15.6349L14.7768 14.2479C14.8195 14.2419 14.8599 14.2249 14.894 14.1986C14.9282 14.1723 14.955 14.1376 14.9718 14.0979L14.9898 14.0359C14.9977 13.9801 14.9865 13.9233 14.958 13.8746C14.9295 13.826 14.8854 13.7884 14.8328 13.7679L14.7778 13.7529L4.5778 12.3659C4.48072 12.3525 4.38971 12.3109 4.31611 12.2462C4.2425 12.1814 4.18954 12.0965 4.1638 12.0019L2.0438 4.22994C1.98058 3.99881 1.98513 3.75437 2.0569 3.52574C2.12867 3.29712 2.26465 3.09394 2.44863 2.94041C2.63262 2.78688 2.85685 2.68947 3.09463 2.65978C3.33241 2.63009 3.57372 2.66937 3.7898 2.77294Z" fill="url(#paint0_linear_103_3443)"/>
</g>
<defs>
<linearGradient id="paint0_linear_103_3443" x1="7.1001" y1="-13.33" x2="27.9956" y2="-6.46864" gradientUnits="userSpaceOnUse">
<stop stop-color="#0DBA48"/>
<stop offset="1" stop-color="#009B51"/>
</linearGradient>
</defs>
</svg>
