<svg width="26" height="26" viewBox="0 0 26 26" fill="none" xmlns="http://www.w3.org/2000/svg">
<g id="Icons">
<g id="ChatsCircle">
<path id="Vector" d="M3.46039 14.2948C2.55186 12.7632 2.23369 10.9527 2.56562 9.20313C2.89754 7.45357 3.85674 5.88537 5.26308 4.79299C6.66943 3.70061 8.42618 3.15919 10.2035 3.27041C11.9807 3.38163 13.6563 4.13783 14.9155 5.39701C16.1747 6.6562 16.9309 8.33175 17.0421 10.109C17.1533 11.8863 16.6119 13.6431 15.5196 15.0494C14.4272 16.4558 12.859 17.415 11.1094 17.7469C9.35988 18.0788 7.54933 17.7607 6.01777 16.8521L6.01779 16.8521L3.49219 17.5737C3.3877 17.6035 3.27712 17.6049 3.17192 17.5776C3.06672 17.5504 2.97073 17.4955 2.89389 17.4186C2.81704 17.3418 2.76215 17.2458 2.73489 17.1406C2.70763 17.0354 2.709 16.9248 2.73885 16.8203L3.46045 14.2947L3.46039 14.2948Z" stroke="url(#paint0_linear_31_2309)" stroke-width="1.5" stroke-linecap="round" stroke-linejoin="round"/>
<path id="Vector_2" d="M9.34961 17.8641C9.70908 18.8846 10.2904 19.8127 11.0517 20.5815C11.813 21.3503 12.7353 21.9407 13.7523 22.3102C14.7692 22.6796 15.8554 22.819 16.9327 22.7182C18.0099 22.6174 19.0514 22.2789 19.9821 21.7271L19.9821 21.7271L22.5077 22.4487C22.6122 22.4785 22.7228 22.4799 22.828 22.4526C22.9332 22.4254 23.0292 22.3705 23.106 22.2936C23.1828 22.2168 23.2377 22.1208 23.265 22.0156C23.2923 21.9104 23.2909 21.7998 23.261 21.6953L22.5394 19.1697L22.5395 19.1698C23.1806 18.0885 23.5323 16.8602 23.5605 15.6034C23.5888 14.3467 23.2926 13.1039 22.7007 11.9949C22.1087 10.8859 21.2409 9.94816 20.1811 9.2722C19.1212 8.59623 17.905 8.20483 16.6498 8.13576" stroke="url(#paint1_linear_31_2309)" stroke-width="1.5" stroke-linecap="round" stroke-linejoin="round"/>
</g>
</g>
<defs>
<linearGradient id="paint0_linear_31_2309" x1="5.60083" y1="-7.0554" x2="18.6568" y2="-2.93487" gradientUnits="userSpaceOnUse">
<stop stop-color="#0DBA48"/>
<stop offset="1" stop-color="#009B51"/>
</linearGradient>
<linearGradient id="paint1_linear_31_2309" x1="12.4251" y1="-2.17251" x2="25.181" y2="1.74271" gradientUnits="userSpaceOnUse">
<stop stop-color="#0DBA48"/>
<stop offset="1" stop-color="#009B51"/>
</linearGradient>
</defs>
</svg>
