<svg width="27" height="27" viewBox="0 0 27 27" fill="none" xmlns="http://www.w3.org/2000/svg">
<g id="Objects" opacity="0.5" clip-path="url(#clip0_980_11419)">
<path id="Vector" d="M12.2568 5.72949L6 11.7042H12.2568V5.72949Z" fill="#0DBA48"/>
<path id="Vector_2" d="M26.1608 2.98438H23.8747V0.804408C23.8747 0.361834 23.499 0 23.0324 0H0.84238C0.375783 0 0 0.358844 0 0.804408V23.2112C0 23.6538 0.375783 24.0156 0.84238 24.0156H3.12839V26.1986C3.12839 26.6412 3.50418 27.003 3.97077 27.003H26.1608C26.6242 27.003 27.0031 26.6441 27.0031 26.1986V3.78879C27.0031 3.34622 26.6274 2.98438 26.1608 2.98438ZM3.37265 11.9405C3.21608 12.09 3.12526 12.2964 3.12526 12.5087V22.4068H1.68163V1.60583H22.19V2.98438H13.0992C12.8768 2.98438 12.6608 3.06811 12.5042 3.22062L3.37265 11.9405ZM12.2568 5.72954V11.7043H6L12.2568 5.72954ZM25.3184 25.3942H4.81002V13.3131H13.0992C13.5626 13.3131 13.9415 12.9543 13.9415 12.5087V4.59918C13.9415 4.59918 13.9415 4.59619 13.9415 4.5932H25.3184V25.3942Z" fill="#09B04A"/>
</g>
<defs>
<clipPath id="clip0_980_11419">
<rect width="27" height="27" fill="white"/>
</clipPath>
</defs>
</svg>
