<svg width="49" height="49" viewBox="0 0 49 49" fill="none" xmlns="http://www.w3.org/2000/svg">
<g opacity="0.5" clip-path="url(#clip0_103_2851)">
<path d="M23.5329 17.4565L18.6665 22.1036H23.5329V17.4565Z" fill="#0DBA48"/>
<path d="M34.3473 15.3212H32.5692V13.6257C32.5692 13.2814 32.277 13 31.9141 13H14.6552C14.2923 13 14 13.2791 14 13.6257V31.0532C14 31.3974 14.2923 31.6788 14.6552 31.6788H16.4332V33.3767C16.4332 33.7209 16.7255 34.0023 17.0884 34.0023H34.3473C34.7077 34.0023 35.0024 33.7232 35.0024 33.3767V15.9468C35.0024 15.6026 34.7102 15.3212 34.3473 15.3212ZM16.6232 22.2871C16.5014 22.4034 16.4308 22.5638 16.4308 22.729V30.4275H15.3079V14.249H31.2589V15.3212H24.1882C24.0153 15.3212 23.8473 15.3863 23.7255 15.5049L16.6232 22.2871ZM23.5331 17.4563V22.1033H18.6667L23.5331 17.4563ZM33.6921 32.751H17.7411V23.3546H24.1882C24.5487 23.3546 24.8434 23.0755 24.8434 22.729V16.5771C24.8434 16.5771 24.8434 16.5748 24.8434 16.5725H33.6921V32.751Z" fill="#09B04A"/>
</g>
<rect x="0.5" y="0.5" width="48" height="48" rx="6.5" stroke="#C7D1DC"/>
<defs>
<clipPath id="clip0_103_2851">
<rect width="21" height="21" fill="white" transform="translate(14 13)"/>
</clipPath>
</defs>
</svg>
